<svg width="28" height="28" viewBox="0 0 28 28" fill="none" xmlns="http://www.w3.org/2000/svg">
<path fill-rule="evenodd" clip-rule="evenodd" d="M4 18.7266C4 21.639 6.37026 24 9.29411 24C12.218 24 14.5882 21.639 14.5882 18.7266C14.5882 15.8141 12.218 13.4531 9.29411 13.4531C6.37026 13.4531 4 15.8141 4 18.7266ZM9.29411 22.8281C7.02001 22.8281 5.17647 20.9918 5.17647 18.7266C5.17647 16.4613 7.02001 14.625 9.29411 14.625C11.5682 14.625 13.4118 16.4613 13.4118 18.7266C13.4118 20.9918 11.5682 22.8281 9.29411 22.8281Z" fill="black"/>
<path fill-rule="evenodd" clip-rule="evenodd" d="M8.70588 23.4141C8.70588 23.7377 8.96924 24 9.29411 24H22.2353C23.2099 24 24 23.213 24 22.2422V8.49232C24 8.33692 23.938 8.18789 23.8277 8.07801L19.9063 4.17165C19.796 4.06175 19.6464 4.00001 19.4903 4.00001H10.4706C9.49599 4.00001 8.70588 4.78703 8.70588 5.75783V14.0391C8.70588 14.3627 8.96924 14.625 9.29411 14.625C9.61899 14.625 9.88235 14.3627 9.88235 14.0391V5.75783C9.88235 5.43424 10.1457 5.17189 10.4706 5.17189H19.2467L22.8235 8.73501V22.2422C22.8235 22.5658 22.5601 22.8281 22.2353 22.8281H9.29411C8.96924 22.8281 8.70588 23.0905 8.70588 23.4141Z" fill="black"/>
<path fill-rule="evenodd" clip-rule="evenodd" d="M20.0784 7.90626V6.00053L21.9916 7.90626H20.0784ZM18.902 8.4922C18.902 8.8158 19.1653 9.07813 19.4902 9.07813H23.4118C23.6497 9.07813 23.8642 8.93538 23.9552 8.71643C24.0463 8.49748 23.9959 8.24559 23.8277 8.07801L19.9063 4.17165C19.7381 4.00407 19.4849 3.95392 19.2651 4.04462C19.0453 4.13531 18.902 4.34896 18.902 4.58595V8.4922Z" fill="black"/>
<path fill-rule="evenodd" clip-rule="evenodd" d="M11.8181 15.2109C11.8181 15.5345 12.0815 15.7969 12.4064 15.7969H20.6667C20.9915 15.7969 21.2549 15.5345 21.2549 15.2109C21.2549 14.8873 20.9915 14.625 20.6667 14.625H12.4064C12.0815 14.625 11.8181 14.8873 11.8181 15.2109Z" fill="black"/>
<path fill-rule="evenodd" clip-rule="evenodd" d="M11.451 11.6953C11.451 12.0189 11.7143 12.2813 12.0392 12.2813H20.6667C20.9915 12.2813 21.2549 12.0189 21.2549 11.6953C21.2549 11.3717 20.9915 11.1094 20.6667 11.1094H12.0392C11.7143 11.1094 11.451 11.3717 11.451 11.6953Z" fill="black"/>
<path fill-rule="evenodd" clip-rule="evenodd" d="M13.4118 18.7266C13.4118 19.0502 13.6751 19.3125 14 19.3125H20.6667C20.9915 19.3125 21.2549 19.0502 21.2549 18.7266C21.2549 18.403 20.9915 18.1406 20.6667 18.1406H14C13.6751 18.1406 13.4118 18.403 13.4118 18.7266Z" fill="black"/>
<path fill-rule="evenodd" clip-rule="evenodd" d="M9.29411 19.3125C9.61899 19.3125 9.88235 19.0502 9.88235 18.7266V16.3828C9.88235 16.0592 9.61899 15.7969 9.29411 15.7969C8.96924 15.7969 8.70588 16.0592 8.70588 16.3828V18.7266C8.70588 19.0502 8.96924 19.3125 9.29411 19.3125Z" fill="black"/>
<path fill-rule="evenodd" clip-rule="evenodd" d="M8.70588 18.7266C8.70588 19.0502 8.96924 19.3125 9.29411 19.3125H10.8627C11.1876 19.3125 11.451 19.0502 11.451 18.7266C11.451 18.403 11.1876 18.1406 10.8627 18.1406H9.29411C8.96924 18.1406 8.70588 18.403 8.70588 18.7266Z" fill="black"/>
<path d="M9.29411 24C6.37026 24 4 21.639 4 18.7266C4 15.8141 6.37026 13.4531 9.29411 13.4531C12.218 13.4531 14.5882 15.8141 14.5882 18.7266C14.5882 21.639 12.218 24 9.29411 24ZM9.29411 24C8.96924 24 8.70588 23.7377 8.70588 23.4141C8.70588 23.0905 8.96924 22.8281 9.29411 22.8281M9.29411 24H22.2353C23.2099 24 24 23.213 24 22.2422V8.49232C24 8.33692 23.938 8.18789 23.8277 8.07801M9.29411 22.8281C7.02001 22.8281 5.17647 20.9918 5.17647 18.7266C5.17647 16.4613 7.02001 14.625 9.29411 14.625M9.29411 22.8281C11.5682 22.8281 13.4118 20.9918 13.4118 18.7266M9.29411 22.8281H22.2353C22.5601 22.8281 22.8235 22.5658 22.8235 22.2422V8.73501L19.2467 5.17189H10.4706C10.1457 5.17189 9.88235 5.43424 9.88235 5.75783V14.0391C9.88235 14.3627 9.61899 14.625 9.29411 14.625M9.29411 14.625C11.5682 14.625 13.4118 16.4613 13.4118 18.7266M9.29411 14.625C8.96924 14.625 8.70588 14.3627 8.70588 14.0391V5.75783C8.70588 4.78703 9.49599 4.00001 10.4706 4.00001H19.4903C19.6464 4.00001 19.796 4.06175 19.9063 4.17165M13.4118 18.7266C13.4118 19.0502 13.6751 19.3125 14 19.3125H20.6667C20.9915 19.3125 21.2549 19.0502 21.2549 18.7266C21.2549 18.403 20.9915 18.1406 20.6667 18.1406H14C13.6751 18.1406 13.4118 18.403 13.4118 18.7266ZM23.8277 8.07801L19.9063 4.17165M23.8277 8.07801C23.9959 8.24559 24.0463 8.49748 23.9552 8.71643C23.8642 8.93538 23.6497 9.07813 23.4118 9.07813H19.4902C19.1653 9.07813 18.902 8.8158 18.902 8.4922V4.58595C18.902 4.34896 19.0453 4.13531 19.2651 4.04462C19.4849 3.95392 19.7381 4.00407 19.9063 4.17165M9.29411 19.3125C9.61899 19.3125 9.88235 19.0502 9.88235 18.7266V16.3828C9.88235 16.0592 9.61899 15.7969 9.29411 15.7969C8.96924 15.7969 8.70588 16.0592 8.70588 16.3828V18.7266M9.29411 19.3125C8.96924 19.3125 8.70588 19.0502 8.70588 18.7266M9.29411 19.3125H10.8627C11.1876 19.3125 11.451 19.0502 11.451 18.7266C11.451 18.403 11.1876 18.1406 10.8627 18.1406H9.29411C8.96924 18.1406 8.70588 18.403 8.70588 18.7266M20.0784 6.00053V7.90626H21.9916L20.0784 6.00053ZM12.4064 15.7969C12.0815 15.7969 11.8181 15.5345 11.8181 15.2109C11.8181 14.8873 12.0815 14.625 12.4064 14.625H20.6667C20.9915 14.625 21.2549 14.8873 21.2549 15.2109C21.2549 15.5345 20.9915 15.7969 20.6667 15.7969H12.4064ZM12.0392 12.2813C11.7143 12.2813 11.451 12.0189 11.451 11.6953C11.451 11.3717 11.7143 11.1094 12.0392 11.1094H20.6667C20.9915 11.1094 21.2549 11.3717 21.2549 11.6953C21.2549 12.0189 20.9915 12.2813 20.6667 12.2813H12.0392Z" stroke="black" stroke-width="0.4" stroke-miterlimit="10" stroke-linecap="round" stroke-linejoin="round"/>
</svg>
