<svg width="28" height="28" viewBox="0 0 28 28" fill="none" xmlns="http://www.w3.org/2000/svg">
<g clip-path="url(#clip0_580_3235)">
<path fill-rule="evenodd" clip-rule="evenodd" d="M12.1771 5.3241C11.6737 5.3241 11.2657 4.91576 11.2657 4.41205C11.2657 3.90834 11.6737 3.5 12.1771 3.5H15.8229C16.3263 3.5 16.7344 3.90834 16.7344 4.41205C16.7344 4.91576 16.3263 5.3241 15.8229 5.3241H14.9011C14.908 5.36909 14.9115 5.41516 14.9115 5.46205V7.00037C21.0303 7.4671 25.6667 12.5998 25.6667 18.8225C25.6667 20.3336 24.4425 21.5586 22.9323 21.5586H5.06775C3.55755 21.5586 2.33337 20.3336 2.33337 18.8225C2.33337 12.5998 6.96974 7.4671 13.0886 7.00037V5.46205C13.0886 5.41516 13.0921 5.36909 13.0989 5.3241H12.1771ZM5.06775 19.7345C4.56435 19.7345 4.15629 19.3262 4.15629 18.8225C4.15629 13.2615 8.48268 8.7899 14 8.7899C19.5174 8.7899 23.8438 13.2615 23.8438 18.8225C23.8438 19.3262 23.4357 19.7345 22.9323 19.7345H5.06775ZM6.89314 17.8814C7.38052 18.0074 7.87771 17.7143 8.00366 17.2266C8.35824 15.8536 9.16069 14.6555 10.2477 13.8006C10.6434 13.4893 10.7121 12.9159 10.401 12.5199C10.09 12.1239 9.51698 12.0552 9.12121 12.3664C7.72839 13.4619 6.69589 14.9999 6.23872 16.7702C6.11278 17.2579 6.40577 17.7554 6.89314 17.8814ZM3.39398 23.555C3.39398 24.0769 3.76495 24.5 4.22258 24.5H23.7775C24.2351 24.5 24.6061 24.0769 24.6061 23.555C24.6061 23.0331 24.2351 22.61 23.7775 22.61H4.22258C3.76495 22.61 3.39398 23.0331 3.39398 23.555Z" fill="black"/>
<path d="M7.66125 3.71636C7.83355 4.14317 7.6272 4.62879 7.20044 4.80112C4.97464 5.6996 3.23202 7.41109 2.29351 9.62038C2.11356 10.044 1.62423 10.2415 1.20062 10.0616C0.777005 9.88163 0.579464 9.39231 0.759416 8.9687C1.872 6.34965 3.93789 4.32064 6.57651 3.2555C7.00328 3.0833 7.48892 3.2896 7.66125 3.71636Z" fill="black"/>
<path d="M20.7723 3.71636C20.6 4.14317 20.8064 4.62879 21.2332 4.80112C23.459 5.6996 25.2016 7.41109 26.1401 9.62038C26.32 10.044 26.8094 10.2415 27.233 10.0616C27.6566 9.88163 27.8541 9.39231 27.6742 8.9687C26.5616 6.34965 24.4957 4.32064 21.8571 3.2555C21.4303 3.0833 20.9447 3.2896 20.7723 3.71636Z" fill="black"/>
</g>
<defs>
<clipPath id="clip0_580_3235">
<rect width="28" height="28" fill="white"/>
</clipPath>
</defs>
</svg>
