<?xml version="1.0" standalone="no"?>
<!DOCTYPE svg PUBLIC "-//W3C//DTD SVG 1.1//EN" "http://www.w3.org/Graphics/SVG/1.1/DTD/svg11.dtd" >
<svg xmlns="http://www.w3.org/2000/svg" xmlns:xlink="http://www.w3.org/1999/xlink" version="1.1">
<metadata></metadata>
<defs>
<font id="db_fongnam_xbold" horiz-adv-x="557" >
<font-face units-per-em="2048" ascent="1638" descent="-410" />
<missing-glyph horiz-adv-x="512" />
<glyph unicode="&#x2b;&#x2d;" horiz-adv-x="610" d="M45 0v90h520v-90h-520zM45 424v90h215v215h90v-215h215v-90h-215v-217h-90v217h-215z" />
<glyph unicode="&#x2e;&#x2e;&#x2e;" horiz-adv-x="1007" d="M125 0v142h88v-142h-88zM459 0v142h90v-142h-90zM794 0v142h88v-142h-88z" />
<glyph horiz-adv-x="0" />
<glyph unicode="&#xd;" horiz-adv-x="579" />
<glyph unicode=" "  horiz-adv-x="512" />
<glyph unicode="&#x09;" horiz-adv-x="512" />
<glyph unicode="&#xa0;" horiz-adv-x="512" />
<glyph unicode="!" horiz-adv-x="297" d="M104 0v135h90v-135h-90zM104 198v560h90v-560h-90z" />
<glyph unicode="&#x22;" horiz-adv-x="311" d="M68 510v242h67v-242h-67zM180 510v242h66v-242h-66z" />
<glyph unicode="#" horiz-adv-x="725" d="M16 252l25 74h185l38 108h-182l26 74h183l92 250h67l-92 -250h101l92 250h67l-92 -250h186l-26 -74h-184l-41 -108h184l-25 -74h-186l-92 -252h-68l92 252h-100l-92 -252h-68l92 252h-182zM293 326h100l39 108h-100z" />
<glyph unicode="$" d="M70 236h84q0 -30 9.5 -55t27 -43t40.5 -28t49 -10q24 0 47 10t40 26t27 38t10 47q0 33 -9.5 55t-26.5 38t-41.5 26t-54.5 18q-41 12 -74 29t-56.5 40.5t-36.5 54.5t-13 71q0 34 11 64.5t30 54.5t46 40t61 23v86h80v-83q36 -6 66 -23t51.5 -42t34 -59t12.5 -74h-86 q0 27 -9 49.5t-24 37.5t-36 24t-47 9t-45 -10t-32 -25t-20 -35t-7 -41q0 -28 9 -46.5t24 -30.5t36 -19t46 -15q42 -12 78.5 -30t62.5 -44t41 -60.5t15 -80.5q0 -36 -13 -70.5t-35.5 -62t-54 -46t-67.5 -22.5v-84h-80v84q-34 8 -65.5 25.5t-55 44t-36.5 62.5t-13 82z" />
<glyph unicode="%" horiz-adv-x="780" d="M6 590q0 39 14 72t39 57t59 37.5t72 13.5q39 0 72.5 -14.5t57.5 -39t37 -57.5t13 -71t-14 -71.5t-38.5 -58.5t-57 -39.5t-70.5 -14.5t-71 15t-58 41t-40 59.5t-15 70.5zM92 588q0 -21 8 -39t21 -31.5t31 -20.5q16 -7 36 -7t38 8t31 22t20 32.5t7 39.5q0 19 -7 35.5 t-19 29.5t-29 20t-39 7t-40 -7t-31 -20t-20 -30t-7 -39zM172 0l340 758h88l-340 -758h-88zM400 168q0 39 14 73.5t38.5 59.5t58 39t73.5 14q39 0 72 -15t57 -40t37.5 -59t13.5 -72t-15 -71t-40 -58t-58 -39t-69 -14q-37 0 -70.5 14.5t-58 39.5t-39 58t-14.5 70zM486 168 q0 -21 7.5 -38.5t21 -29.5t30.5 -19t37 -7q21 0 38.5 7t30.5 20.5t20 31.5t7 39q0 19 -7.5 36.5t-20.5 30.5t-30 21q-16 8 -36 8q-22 0 -40.5 -7t-31 -21t-19.5 -32t-7 -40z" />
<glyph unicode="&#x26;" horiz-adv-x="762" d="M51 232q0 40 13.5 74t36 61.5t52 49t60.5 37.5q-16 16 -29.5 33t-23.5 35t-15 40q-5 20 -5 46q0 36 15 67t40.5 54t58 36t66.5 13q39 0 73.5 -14t60.5 -39t41 -58.5t15 -72.5q0 -33 -12 -59.5t-31 -47.5t-44 -36t-53 -27q36 -34 66 -65t60 -60l106 207h98l-139 -268 l189 -187l-64 -61l-166 166q-18 -34 -40.5 -64t-50.5 -52t-62.5 -34t-77.5 -12q-50 0 -93.5 19t-75.5 51t-50.5 75t-18.5 93zM140 226q0 -28 11 -55t30 -47t45 -32t56 -12q34 0 59.5 12t45 31t35.5 44t30 52q-48 45 -90 86t-82 82q-2 -2 -13 -6.5t-27 -13t-33 -21t-32 -30.5 t-25 -40t-10 -50zM228 604q0 -16 7 -32t18 -30t25 -28q13 -12 25 -24q21 8 42 18.5t38 24.5t28 31.5t11 39.5q0 18 -8.5 34t-22.5 28t-31.5 19t-35.5 7q-19 0 -36.5 -6t-31 -17t-21 -27.5t-7.5 -37.5z" />
<glyph unicode="'" horiz-adv-x="200" d="M68 510v242h65v-242h-65z" />
<glyph unicode="(" horiz-adv-x="372" d="M51 307q0 47 9 94t26 91t42.5 85t57.5 75t72 60t86 42v-78q-46 -24 -83 -65t-64 -90.5t-42 -104.5t-15 -109q0 -52 13.5 -106.5t40 -104.5t64.5 -91t86 -65v-77q-70 26 -124 72.5t-92 106.5t-57.5 128t-19.5 137z" />
<glyph unicode=")" horiz-adv-x="372" d="M28 -60q48 23 86.5 64.5t65 91.5t40.5 105t14 106q0 54 -15 109t-42 104.5t-65 90.5t-84 65v78q46 -16 86 -42t72.5 -60t58 -75t42.5 -85t26 -91t9 -94q0 -42 -9 -87.5t-26 -90.5t-42 -88t-57.5 -78t-72 -61t-87.5 -39v77z" />
<glyph unicode="*" horiz-adv-x="428" d="M58 580v65h98l-52 84l62 37l49 -86l51 86l60 -37l-52 -84h96v-65h-94l50 -84l-60 -37l-51 86l-49 -84l-62 35l52 84h-98z" />
<glyph unicode="+" horiz-adv-x="610" d="M45 260v90h215v215h90v-215h215v-90h-215v-217h-90v217h-215z" />
<glyph unicode="," horiz-adv-x="278" d="M80 -76l96 211h90l-96 -211h-90z" />
<glyph unicode="-" horiz-adv-x="502" d="M72 262v82h358v-82h-358z" />
<glyph unicode="." horiz-adv-x="278" d="M94 0v142h90v-142h-90z" />
<glyph unicode="/" horiz-adv-x="440" d="M30 -137l296 889h84l-298 -889h-82z" />
<glyph unicode="0" d="M22 297v195q0 56 18 108t51 91t81 63t108 24q62 0 110 -23.5t80.5 -63t49 -91.5t16.5 -108v-195q0 -60 -15.5 -114.5t-47 -96.5t-79.5 -67t-114 -25q-64 0 -112.5 26t-81 68t-48.5 97t-16 112zM112 309q0 -44 7.5 -85t26 -73t51.5 -51.5t83 -19.5q36 0 62 9t44.5 25 t30 38t18.5 48t9 53.5t2 55.5v164q0 41 -10 80.5t-30 70t-52 49.5t-74 19q-50 0 -82 -19t-51 -50t-27 -70t-8 -80v-164z" />
<glyph unicode="1" d="M144 676v82h214v-758h-88v676h-126z" />
<glyph unicode="2" d="M26 0v78l288 274q20 19 40 40t36.5 44t27.5 48q10 24 10 52q0 33 -12.5 60.5t-34 46.5t-49.5 30t-60 11q-33 0 -61.5 -12t-49.5 -35t-32 -56.5t-8 -76.5h-88q-4 57 13.5 105.5t50.5 84.5t79 56t102 20q48 0 91.5 -18.5t76 -50t51.5 -74t19 -89.5q0 -42 -12 -77t-32.5 -65 t-46 -56t-53.5 -51l-218 -207h358v-82h-486z" />
<glyph unicode="3" d="M26 254h88q-2 -32 9 -63t32 -56t49.5 -40t61.5 -15q34 0 63 12.5t51 34t34 50.5t12 63q0 27 -8.5 50.5t-23.5 42.5t-35.5 33t-43.5 22.5t-49 11t-51 -1.5v79h33q27 0 50.5 6.5t41 19.5t27.5 33q10 22 10 50q0 24 -8 43t-22.5 33t-34.5 22t-44 8t-43 -10t-32.5 -27 t-20.5 -40t-6 -50h-88q-1 46 12.5 85t39.5 67.5t62 44.5t82 16q40 0 76 -16t62 -43t40.5 -63t14.5 -76q0 -44 -18.5 -77t-52.5 -63q28 -14 49.5 -35.5t37 -47.5t23.5 -55.5t8 -59.5q0 -52 -19 -97t-52 -78.5t-78 -53t-97 -19.5t-96 21t-76.5 57t-51 83t-18.5 99z" />
<glyph unicode="4" d="M6 137v78l362 543h103v-539h69v-82h-69v-137h-90v137h-375zM112 219h269v405z" />
<glyph unicode="5" d="M20 256h88q0 -36 14 -68t36.5 -56t53 -38t66.5 -14q37 0 68.5 14t54.5 39t36 57.5t13 69.5q0 36 -12.5 69t-35 58t-54.5 40t-70 15q-24 0 -47.5 -8t-44 -20t-36.5 -26t-23 -26l-67 25l69 379h348v-82h-277l-32 -184q26 14 55 21t59 7q54 0 101 -21.5t82 -58t54 -85 t19 -101.5q0 -54 -19 -102.5t-53 -85t-81 -58.5t-103 -22t-102.5 20t-81 55t-55.5 83t-23 104z" />
<glyph unicode="6" d="M18 260q0 38 8 69t21 59t31 55q16 27 36 57l179 266h105l-170 -250q14 4 31.5 7t37.5 3q36 0 67.5 -10t58.5 -29t49 -44t37 -54t23 -62t8 -65q0 -54 -20 -102.5t-56 -85t-84 -58.5t-104 -22q-53 0 -99.5 22t-81.5 58.5t-56 84.5t-21 101zM106 266q0 -38 13 -71.5t36 -59 t55 -40.5q30 -15 68 -15q36 0 68 14t55 39t36 57.5t13 69.5q0 36 -13 69t-36 58t-54 40t-69 15q-36 0 -67 -14t-54.5 -39t-37 -57t-13.5 -66z" />
<glyph unicode="7" d="M56 676v82h446v-76l-308 -682h-96l308 676h-350z" />
<glyph unicode="8" d="M35 234q0 28 8.5 57.5t23.5 56t37 48.5t50 34q-42 25 -60 63.5t-18 86.5q0 44 16.5 80t44.5 62.5t65.5 41t79.5 14.5t79 -16t64 -44t43 -65t16 -79q0 -22 -5.5 -43.5t-16 -40.5t-25.5 -34.5t-33 -25.5q27 -14 48.5 -35t37 -47t24 -55t8.5 -59q0 -52 -20 -96t-53 -76 t-78 -50t-95 -18q-49 0 -92.5 19t-76.5 51t-52.5 76t-19.5 94zM125 230q0 -32 12.5 -59t32.5 -47.5t48 -32t58 -11.5q33 0 62 11.5t50.5 32t33.5 49t12 61.5t-12 60.5t-33.5 47t-50 30.5t-62.5 11q-32 0 -59 -11.5t-48 -32.5t-32.5 -49t-11.5 -60zM164 584q0 -26 9 -47 t25 -36t37 -23.5t45 -8.5q22 0 43 9t37 24t26 35.5t10 42.5q0 24 -9 44t-24 35t-36 24t-45 9t-45 -8t-37.5 -22.5t-26 -34t-9.5 -43.5z" />
<glyph unicode="9" d="M18 504q0 53 19.5 101t54 84.5t82.5 58.5t106 22q54 0 102 -21.5t83 -58t55 -84t20 -100.5q0 -38 -8 -69t-21.5 -59t-31 -55t-37.5 -57l-176 -266h-104l168 250q-33 -12 -68 -12q-36 0 -67 10t-58.5 29t-49 44.5t-37 55t-24 62t-8.5 65.5zM106 506q0 -36 14 -68.5t37 -57 t55 -38.5t68 -14q34 0 65 13t54.5 36t37 55t13.5 68q0 37 -12 70.5t-35 58.5t-54 40t-69 15q-37 0 -68.5 -14t-54.5 -39t-37 -57t-14 -68z" />
<glyph unicode=":" horiz-adv-x="278" d="M94 0v140h90v-140h-90zM94 389v139h90v-139h-90z" />
<glyph unicode=";" horiz-adv-x="278" d="M30 -68l97 210h88l-94 -210h-91zM123 389v139h88v-139h-88z" />
<glyph unicode="&#x3c;" horiz-adv-x="610" d="M43 266v74l527 240v-88l-408 -189l408 -189v-88z" />
<glyph unicode="=" horiz-adv-x="610" d="M47 160v90h516v-90h-516zM47 356v90h516v-90h-516z" />
<glyph unicode="&#x3e;" horiz-adv-x="610" d="M41 26v88l407 189l-407 189v88l527 -240v-74z" />
<glyph unicode="?" horiz-adv-x="596" d="M60 512v28q0 49 20 91.5t54 73t79 48t92 17.5q50 0 92.5 -18t73.5 -49t48 -74t17 -93q0 -40 -14 -71t-35.5 -56.5t-46.5 -48t-45.5 -47.5t-34.5 -53t-12 -66h-90q-2 33 6 63.5t23.5 57.5t36.5 51q20 24 42 44q18 16 33 30t25 29.5t16 33.5t6 42q0 30 -12 55.5t-32.5 44 t-47.5 29t-57 10.5q-33 0 -62 -15t-50.5 -39t-32 -55t-6.5 -63h-86zM258 0v137h90v-137h-90z" />
<glyph unicode="@" horiz-adv-x="872" d="M66 383q0 54 14 103.5t39 92.5t61 79t79.5 61t93.5 39q49 14 103 14q46 0 91 -10.5t84 -31t72 -49t56 -65t36.5 -80t13.5 -92.5q0 -54 -15 -101q-14 -47 -44 -89q-16 -22 -36 -42.5t-43 -36t-49.5 -24.5t-56.5 -9q-12 0 -25 2.5t-25.5 8t-22.5 14.5t-17 21 q-26 -24 -55 -34q-30 -10 -62 -10q-34 0 -62 12t-47 33t-29.5 50t-10.5 62q0 35 8.5 72t24.5 72t39 66t52 54.5t63 37t73 13.5q16 0 32.5 -3t30.5 -10.5t26 -18.5q14 -10 22 -25l12 37h84l-106 -318q-3 -10 -7 -21.5t-4.5 -22t3.5 -18t18 -7.5q16 0 32 7.5t32 18.5t30 25 q12 14 22 26q50 72 50 160q0 60 -25 109t-65 83t-93 52t-109 18q-46 0 -88 -12t-78 -34t-65 -52.5t-49.5 -67.5t-31.5 -78.5t-11 -86.5t11.5 -87t33 -78t51.5 -66t66 -51t77.5 -32.5t85.5 -11.5q39 0 77.5 9.5t72.5 27.5t63 44t50 58l79 2l-6 -10q-27 -46 -63.5 -81.5 t-79.5 -61t-92 -38.5t-101 -13q-56 0 -106 14t-93 39.5t-78.5 61.5t-61 80t-38.5 94.5t-13 105.5zM301 307q0 -18 4.5 -33.5t13.5 -27.5t23 -18q12 -7 30 -7t34.5 7.5t31 20t26.5 27.5q12 16 20 31q8 18 17 39.5t16.5 43.5t12 44t4.5 41q0 30 -17 48.5t-46 18.5 q-25 0 -47.5 -11t-41 -30t-33.5 -43t-26 -50.5t-16.5 -52.5t-5.5 -48z" />
<glyph unicode="A" horiz-adv-x="753" d="M4 0l324 754h96l324 -754h-103l-107 246h-327l-105 -246h-102zM250 332h252l-125 299z" />
<glyph unicode="B" horiz-adv-x="579" d="M66 2v754h202h7q47 0 89 -13q44 -14 77 -40.5t51 -64.5t18 -87q0 -48 -17 -81.5t-53 -61.5q54 -30 84 -78q28 -45 27 -103v-8q-2 -58 -23 -99t-59.5 -67.5t-93.5 -38.5t-127 -12h-182zM160 88h86q45 0 82.5 5.5t65.5 20t44 39t18 64.5q2 31 -5.5 53t-22 37.5t-34.5 25 t-43 14.5t-47 6t-48 1h-96v-266zM160 442h98q28 0 57 6.5t52 20t37 35t14 51.5t-13.5 51.5t-37 35.5t-55.5 21t-68 7h-84v-228z" />
<glyph unicode="C" horiz-adv-x="827" d="M43 381q0 53 14 102.5t39.5 92.5t60.5 78.5t78.5 60.5t93 39t103.5 14q49 0 101.5 -13.5t100.5 -41t88 -69t64 -97.5h-102q-21 33 -49.5 57t-61.5 40t-69 24t-70 8q-62 0 -116 -24t-95 -65t-64.5 -94t-23.5 -112q0 -42 11.5 -80.5t31.5 -71.5t48 -60.5t62 -47t72 -30.5 t78 -11q36 0 71 9t67 26.5t60 42t50 55.5h102q-27 -52 -64.5 -94t-82.5 -71.5t-97 -44.5t-106 -15q-56 0 -106 13.5t-94 38.5t-80 60.5t-61.5 79.5t-39.5 94.5t-14 106.5z" />
<glyph unicode="D" horiz-adv-x="753" d="M68 2v754h208q95 0 174.5 -28t137 -78t89 -118.5t31.5 -150.5q0 -58 -14.5 -109t-41 -93t-64 -75t-82.5 -55.5t-96 -34.5t-105 -12h-237zM162 88h124q67 0 126.5 19.5t104.5 57t71 92t26 124.5q0 64 -23 117.5t-68 92.5t-109 60q-59 19 -134 19h-14h-104v-582z" />
<glyph unicode="E" horiz-adv-x="540" d="M68 2v754h420v-86h-328v-246h313v-84h-313v-252h328v-86h-420z" />
<glyph unicode="F" horiz-adv-x="497" d="M68 4v754h393v-88h-301v-244h284v-86h-284v-336h-92z" />
<glyph unicode="G" horiz-adv-x="887" d="M43 383q0 54 15 103.5t41.5 92.5t64 78t82 59.5t95.5 38t103 13.5t106 -14.5t103 -43t89 -71.5t63 -99h-105q-21 33 -49.5 58.5t-61.5 43.5t-70 27t-75 9q-58 0 -113.5 -22t-99 -62t-70 -94t-26.5 -119q0 -64 25.5 -119.5t68.5 -95.5t100 -63t119 -23q46 0 91 13 t82.5 38.5t66.5 61.5q28 35 43 81h-405v86h518q-2 -55 -19 -103.5t-44.5 -90t-64 -75t-80.5 -56.5t-92 -35q-50 -12 -100 -12q-54 0 -104 14t-94.5 39t-82 61t-64 80t-41.5 95t-15 106z" />
<glyph unicode="H" horiz-adv-x="692" d="M68 2v754h94v-324h360v324h94v-754h-94v346h-360v-346h-94z" />
<glyph unicode="I" horiz-adv-x="248" d="M78 2v754h92v-754h-92z" />
<glyph unicode="J" horiz-adv-x="489" d="M6 194h90q2 -28 12.5 -49.5t27 -37t37 -23.5t44.5 -8t44 9t33.5 26t21.5 40t8 52v551h92v-549q0 -52 -15 -92.5t-41 -68.5t-64 -43t-85 -15q-43 0 -80 15t-64.5 42t-44 66t-16.5 85z" />
<glyph unicode="K" horiz-adv-x="598" d="M66 0v756h94v-406l326 406h118l-299 -367l297 -389h-114l-242 314l-86 -107v-207h-94z" />
<glyph unicode="L" horiz-adv-x="465" d="M64 0v756h94v-668h298v-88h-392z" />
<glyph unicode="M" horiz-adv-x="934" d="M72 0v756h128l263 -610l262 610h129v-756h-94v610l-256 -610h-82l-256 610v-610h-94z" />
<glyph unicode="N" horiz-adv-x="749" d="M70 2v754h112l398 -586v586h92v-754h-86l-424 620v-620h-92z" />
<glyph unicode="O" horiz-adv-x="887" d="M43 375q0 54 14.5 104.5t40 94t62 79t80.5 60.5t95 39t105 14t104.5 -13.5t95 -38t81.5 -59.5t63 -78t41 -92.5t15 -103.5q0 -55 -14.5 -105t-41 -94t-62.5 -80t-80.5 -61t-95.5 -39q-52 -14 -106 -14q-53 0 -102.5 13t-93.5 38t-81 60t-64 78t-41.5 93t-14.5 105z M137 375q0 -42 11.5 -79.5t31.5 -70.5t48 -60t62 -46t73 -29t79 -10q62 0 117.5 23.5t97 64t65.5 95.5t24 118q0 40 -11.5 77.5t-32 70.5t-48.5 60t-61.5 46t-71.5 30q-39 11 -79 11q-64 0 -119 -23.5t-97 -64t-65.5 -95.5t-23.5 -118z" />
<glyph unicode="P" horiz-adv-x="598" d="M66 2v756h202q60 0 115.5 -12t97 -39t66.5 -71t25 -108q0 -54 -22 -101t-64 -79q-22 -18 -46 -28t-48.5 -14.5t-50 -5.5t-52.5 -1h-129v-297h-94zM160 387h131q34 0 68 7.5t60.5 24.5t43 43.5t16.5 65.5q0 36 -15.5 63t-42 44t-61 26t-71.5 9h-129v-283z" />
<glyph unicode="Q" horiz-adv-x="887" d="M43 370q0 58 14.5 109.5t41 95.5t63.5 79.5t82.5 60.5t97.5 38q50 13 106 13q86 0 160.5 -30t129 -83t85.5 -126t31 -159q0 -38 -8 -74t-23 -69.5t-37 -64t-48 -58.5q17 -12 36.5 -20t42.5 -8h25v-88h-18q-92 0 -156 61q-48 -32 -106 -46.5t-116 -14.5q-54 0 -104.5 13 t-95 37.5t-82.5 59t-64.5 77.5t-41.5 93t-15 104zM137 370q0 -20 2 -37q3 -17 7 -32q72 21 143.5 21t138.5 -18t128.5 -54t113.5 -86q42 42 66 94t24 112q0 64 -24.5 120t-67 97t-98.5 64q-58 23 -122 23t-120 -23t-99 -64t-67 -97q-25 -56 -25 -120zM182 217 q20 -34 51 -60.5t66 -44.5t75 -27t78 -9q36 0 74 8.5t68 25.5q-46 42 -97 70.5t-103 42.5q-50 13 -99 13h-7q-54 -1 -106 -19z" />
<glyph unicode="R" horiz-adv-x="614" d="M68 2v754h202h16q56 0 106 -12q58 -14 101 -45t68 -79.5t25 -113.5q0 -46 -16.5 -85t-44.5 -69.5t-65.5 -50t-80.5 -25.5l207 -274h-115l-266 352h69q22 0 47 3t49 10t46 18t39 29t27 42.5t10 57.5q0 40 -18 69t-47 48.5t-68 29t-83 9.5h-116v-668h-92z" />
<glyph unicode="S" horiz-adv-x="504" d="M14 228h98q0 -32 11 -59t29 -47t43 -31t55 -11t56 10t45 28t29.5 42.5t10.5 54.5t-12 53.5t-32.5 41.5t-49.5 30q-29 10 -61 16q-37 6 -72.5 20.5t-63.5 39t-45.5 59.5t-17.5 84q0 46 17.5 84.5t47 66.5t69 43t85.5 15q44 0 82 -16t67 -45t45.5 -69t16.5 -87h-97 q-2 28 -11.5 51.5t-26 40.5t-38 26t-48.5 9q-25 0 -46 -10t-36.5 -26t-24 -37.5t-8.5 -45.5q0 -31 12.5 -51t32 -33t44 -21t48.5 -14q46 -12 86 -29.5t69 -44.5t45 -64t16 -87q0 -48 -19 -89.5t-50.5 -72t-73.5 -48t-89 -17.5q-49 0 -92.5 17t-75.5 49t-51 76t-19 98z" />
<glyph unicode="T" horiz-adv-x="434" d="M4 672v86h426v-86h-166v-668h-92v668h-168z" />
<glyph unicode="U" horiz-adv-x="663" d="M68 284v472h94v-474q0 -39 9.5 -75.5t29.5 -65.5t51.5 -46t75.5 -17q37 0 67.5 16t52.5 43.5t34 66t12 82.5v470h94v-467q0 -66 -19 -121t-53 -95.5t-82 -62.5t-106 -22t-106 21t-82.5 60t-53.5 93q-18 54 -18 122z" />
<glyph unicode="V" horiz-adv-x="717" d="M4 758h106l246 -623l252 623h104l-312 -754h-84z" />
<glyph unicode="W" horiz-adv-x="979" d="M6 758h100l170 -612l170 612h84l168 -612l172 612h98l-214 -756h-113l-153 574l-154 -574h-113z" />
<glyph unicode="X" horiz-adv-x="622" d="M-2 2l256 385l-242 369h111l189 -285l186 285h108l-242 -369l258 -385h-110l-200 305l-204 -305h-110z" />
<glyph unicode="Y" horiz-adv-x="604" d="M-4 758h100l205 -404l207 404h98l-258 -498v-256h-92v256z" />
<glyph unicode="Z" horiz-adv-x="612" d="M72 2v80l350 588h-342v86h454l-2 -80l-350 -588h358v-86h-468z" />
<glyph unicode="[" horiz-adv-x="354" d="M106 162v290q0 52 13 100t39.5 88t67.5 70q42 30 98 44v-90q-38 -18 -63 -39t-40.5 -46t-22 -56t-6.5 -71v-278q0 -40 5.5 -73t20 -59t40.5 -48t66 -41v-90q-56 12 -97 41t-68 69.5t-40 89.5t-13 99z" />
<glyph unicode="\" horiz-adv-x="610" d="M76 758h84l317 -758h-84z" />
<glyph unicode="]" horiz-adv-x="354" d="M30 -47q36 18 61.5 38.5t41 46t22.5 56.5t7 70v276q0 88 -34 142t-98 82v90q57 -12 98.5 -41t67.5 -70t39 -89q13 -50 13 -100v-290q0 -58 -13 -107t-40 -87t-68 -65t-97 -42v90z" />
<glyph unicode="^" horiz-adv-x="676" d="M41 174l264 578h65l267 -578h-80l-221 480l-215 -480h-80z" />
<glyph unicode="_" horiz-adv-x="504" d="M-2 -154h506v-78h-506v78z" />
<glyph unicode="`" horiz-adv-x="381" d="M66 721l38 73l214 -116l-42 -70z" />
<glyph unicode="a" horiz-adv-x="696" d="M41 280q0 50 14.5 91t38 73t54 56t64.5 40t67.5 24t62.5 8q30 0 59 -6t55.5 -17t49.5 -28.5t41 -41.5v82h86v-563h-86v84q-36 -48 -89.5 -73t-113.5 -25q-69 0 -125 24t-95.5 64.5t-61 94t-21.5 113.5zM137 278q0 -42 16.5 -79t44 -65t65 -44t79.5 -16t79.5 16t65 44 t44 65t16.5 79t-16.5 80t-44 65.5t-65 44t-79.5 16.5t-79.5 -16.5t-65 -44t-44 -65.5t-16.5 -80z" />
<glyph unicode="b" horiz-adv-x="696" d="M62 0v834h92v-348q16 22 38 38t48 27t53.5 17t54.5 6q60 0 115.5 -22t97 -60.5t66.5 -92t25 -117.5q0 -48 -12.5 -88t-34 -73t-50.5 -58t-61.5 -42.5t-67.5 -26.5q-36 -8 -70 -8q-27 0 -55.5 5.5t-56 17t-52 27.5t-42.5 38v-74h-88zM148 276q0 -43 16 -79.5t45 -63.5 t67 -42t80 -15q43 0 80.5 16t65.5 43.5t43.5 64.5t15.5 80q0 44 -16.5 82t-45.5 65t-67.5 42t-81.5 15q-44 0 -81 -16t-64 -44t-42 -66t-15 -82z" />
<glyph unicode="c" horiz-adv-x="655" d="M41 280q0 42 11.5 80t31.5 70.5t48 59t62 45t72 29t78 10.5q46 0 88.5 -13t79.5 -37.5t66 -61.5q28 -36 46 -85h-98q-16 24 -35.5 44t-43 33.5t-49 21.5t-52.5 8q-44 0 -82.5 -15.5t-67.5 -42.5t-46 -63.5t-17 -80.5q0 -43 17.5 -81.5t46.5 -67.5t68 -45q35 -14 73 -14 h10q112 7 176 102h100q-43 -93 -113 -142.5t-163 -49.5q-64 0 -120 22t-97.5 62t-65.5 94t-24 118z" />
<glyph unicode="d" horiz-adv-x="696" d="M39 282q0 64 24.5 117.5t65.5 92t95 60.5t114 22q28 0 57 -5.5t55 -16t50 -27.5q22 -17 40 -41v350h93v-834h-88v82q-39 -48 -92 -72t-119 -24q-27 0 -59.5 7.5t-65.5 23t-63.5 39.5t-54 57t-37.5 75q-15 42 -15 94zM129 282q0 -43 16.5 -80.5t44.5 -65.5t65.5 -44 t80.5 -16t80.5 16t65.5 44t44 65.5t16 80.5q0 44 -16 81t-44.5 64t-66.5 42t-81 15q-42 0 -79 -15.5t-65 -42.5t-44.5 -63.5t-16.5 -80.5z" />
<glyph unicode="e" horiz-adv-x="661" d="M41 280q0 60 22.5 113t61.5 93t92 63t115 23q65 0 119.5 -25t93.5 -69t59 -104q18 -55 18 -117v-13h-493q4 -36 22.5 -67t46.5 -54t63.5 -36t72.5 -13q28 0 56 8t52 23.5t43 37.5q19 21 31 49h94q-16 -46 -44 -84t-64.5 -66t-79.5 -43t-88 -15q-62 0 -115 23t-93 63.5 t-62 94.5q-23 53 -23 115zM131 328h399q-8 34 -26.5 62t-45 49t-58.5 33t-68 12q-34 0 -67 -11.5t-60 -32t-46 -49.5t-28 -63z" />
<glyph unicode="f" horiz-adv-x="372" d="M30 482v86h86v11q0 39 12 70q14 35 43 59.5t71 37t98 12.5v-86q-34 0 -59 -5t-41 -17t-24 -32t-9 -50h135v-86h-135v-476h-91v476h-86z" />
<glyph unicode="g" horiz-adv-x="686" d="M41 280q0 52 13.5 94t35.5 74.5t51 56t61 39t64 22.5q34 8 62 8q30 0 59 -6t56 -18t51 -29.5t42 -41.5v82h86v-555q0 -62 -19 -117t-56 -96t-90 -64.5t-121 -23.5q-47 0 -91.5 15.5t-81.5 43.5t-64 68t-39 90h88q16 -30 35.5 -54t43.5 -40.5t52.5 -25.5t62.5 -9 q43 0 78.5 13.5t61.5 39t40 62t14 82.5v96q-18 -24 -40.5 -43t-49 -32t-55.5 -19t-59 -6q-40 0 -77.5 10.5t-70 30t-58.5 46.5t-45 60t-29.5 70t-10.5 77zM133 286q0 -43 14 -81t40 -66.5t62.5 -45.5t82.5 -17t83 17t64 46t41 66t14 77q0 43 -16 80t-45 64t-67 42.5 t-80 15.5t-78 -16t-61 -42.5t-39.5 -62t-14.5 -77.5z" />
<glyph unicode="h" horiz-adv-x="618" d="M58 0v836h92v-330q30 36 70 52t85 16q60 0 107.5 -23t79.5 -59t48.5 -82t16.5 -92v-318h-92v318q0 36 -11.5 66.5t-33.5 53t-52 35.5t-67 13q-33 0 -61 -11.5t-48 -32t-31 -48t-11 -60.5v-334h-92z" />
<glyph unicode="i" horiz-adv-x="241" d="M76 0v563h90v-563h-90zM76 626v128h90v-128h-90z" />
<glyph unicode="j" horiz-adv-x="205" d="M-56 -182q26 2 45 9t31.5 18t19.5 26.5t10.5 33t4.5 36.5t1 39v583h92v-614q0 -46 -12 -86t-36.5 -70.5t-63 -47.5t-92.5 -17v90zM56 631v123h92v-123h-92z" />
<glyph unicode="k" horiz-adv-x="508" d="M58 0v836h92v-578l231 305h119l-218 -283l234 -282l-118 4l-172 209l-76 -101v-110h-92z" />
<glyph unicode="l" horiz-adv-x="200" d="M56 2v834h90v-834h-90z" />
<glyph unicode="m" horiz-adv-x="954" d="M62 0v561h88v-51q25 31 59 48q33 16 75 16q60 0 110 -25t79 -67q13 20 33 37t44 29t51 19t55 7q26 0 53.5 -7.5t53 -21t48.5 -34t40 -47t26.5 -58t9.5 -68.5v-338h-93v332q0 32 -10 59.5t-28 48.5t-45 33.5t-59 12.5q-30 0 -55 -11t-42.5 -29.5t-27 -44t-9.5 -55.5v-346 h-90v338q0 30 -10 57t-28 47t-44 32t-57 12q-32 0 -56.5 -11t-42.5 -29.5t-27 -44t-9 -55.5v-346h-92z" />
<glyph unicode="n" horiz-adv-x="618" d="M58 0v561h88v-59q62 72 159 72q50 0 95.5 -18t80.5 -51t55.5 -80t20.5 -105v-320h-92v316q0 36 -12 67t-33.5 53t-52 35t-66.5 13q-34 0 -62.5 -11.5t-48 -32t-30 -48t-10.5 -60.5v-332h-92z" />
<glyph unicode="o" horiz-adv-x="667" d="M39 276q0 62 22.5 116t62.5 94.5t94 64t116 23.5q39 0 75.5 -11t69.5 -30t60 -45.5t46.5 -59t30 -69t10.5 -75.5q0 -40 -10 -77.5t-29 -71t-45.5 -61.5t-59 -48t-70 -31t-78.5 -11q-60 0 -113.5 23.5t-94 63.5t-64 93.5t-23.5 111.5zM131 276q0 -40 15.5 -77t42.5 -65 t64.5 -44t80.5 -16t79.5 17t63.5 46t42 67t15 80q0 40 -16 77t-44 64t-64 43t-76 16q-43 0 -80.5 -16.5t-64.5 -44.5t-42.5 -65.5t-15.5 -81.5z" />
<glyph unicode="p" horiz-adv-x="692" d="M60 -274v833h88v-73q18 22 42.5 38t52 27t56.5 16t55 5q29 0 62.5 -7.5t66.5 -23t63 -39t53 -56t36.5 -74.5t13.5 -94q0 -42 -11.5 -80.5t-31.5 -71t-48 -59t-61.5 -45t-72 -28.5t-78.5 -10q-27 0 -54.5 6t-53.5 17.5t-48 29t-38 39.5v-350h-92zM146 282q0 -44 15 -82 t42.5 -66t64.5 -44t80 -16t81.5 15.5t67.5 43t45.5 64.5t16.5 81q0 43 -15.5 80.5t-43.5 64.5t-65 43t-81 16q-43 0 -80.5 -15t-66.5 -41t-45 -63t-16 -81z" />
<glyph unicode="q" horiz-adv-x="692" d="M43 278q0 52 13.5 94t36.5 74.5t53 56t63 39t66.5 23t62.5 7.5q27 0 56 -5t56.5 -15.5t52.5 -27t44 -40.5v75h88v-833h-93v354q-16 -24 -38 -42t-48 -30t-55 -18t-57 -6q-40 0 -78 10t-71 28.5t-61 45t-48 59t-31.5 71t-11.5 80.5zM133 278q0 -44 16.5 -81t45 -64.5 t66.5 -43t81 -15.5q44 0 81.5 16t65 45t43 66.5t15.5 80.5q0 44 -16.5 81t-45 63t-66.5 41t-81 15t-80.5 -16t-65.5 -43t-43.5 -64t-15.5 -81z" />
<glyph unicode="r" horiz-adv-x="303" d="M56 0v561h86v-51q13 18 29.5 30t37 19t43 10t47.5 5v-90q-42 -2 -71.5 -15.5t-47.5 -35t-26 -49.5t-8 -62v-322h-90z" />
<glyph unicode="s" horiz-adv-x="393" d="M12 178h88q0 -22 8 -41t20.5 -33t29 -22t34.5 -8t34 6t28 17.5t19 27t7 33.5q0 24 -9 40t-23 27t-32 17.5t-36 11.5q-30 8 -57 20t-47.5 30.5t-33 45t-12.5 62.5t13.5 66t36 51t52.5 33t64 12q33 0 62.5 -12.5t51.5 -35t35 -52.5t13 -66h-92q0 20 -6 34t-17 23t-25 14 t-30 5q-30 0 -47.5 -18.5t-17.5 -47.5q0 -21 7.5 -34.5t19.5 -22.5t28 -14.5t33 -10.5q32 -9 60.5 -22t50.5 -32.5t35 -46.5t13 -65q0 -42 -14 -76t-39 -58t-59 -37t-74 -13q-36 0 -68 15t-56 41t-37 61q-11 30 -11 64v11z" />
<glyph unicode="t" horiz-adv-x="393" d="M30 482v86h116v190h90v-190h126v-86h-126v-478h-90v478h-116z" />
<glyph unicode="u" horiz-adv-x="616" d="M60 248v313h92v-311q0 -36 10 -68t29.5 -55.5t48 -37t65.5 -13.5q36 0 65.5 14t50.5 37.5t32.5 55t11.5 65.5v313h92v-561h-88v66q-14 -21 -33.5 -36.5t-41.5 -25t-47 -14t-50 -4.5q-16 0 -40.5 3.5t-50.5 13.5t-52 28.5t-47 47.5t-34 70.5t-13 98.5z" />
<glyph unicode="v" horiz-adv-x="565" d="M0 563h100l182 -436l181 436h100l-237 -563h-88z" />
<glyph unicode="w" horiz-adv-x="850" d="M6 561h96l164 -436l119 365h76l119 -365l166 436h96l-214 -563h-96l-110 342l-106 -342h-99z" />
<glyph unicode="x" horiz-adv-x="489" d="M-4 -2l192 286l-192 277h110l138 -201l139 201h109l-193 -277l193 -286h-107l-141 213l-140 -213h-108z" />
<glyph unicode="y" horiz-adv-x="545" d="M2 559h94l170 -415l176 415h98l-356 -833h-96l123 298z" />
<glyph unicode="z" horiz-adv-x="502" d="M41 -2v80l283 397h-271v86h389l-2 -77l-282 -400h303v-86h-420z" />
<glyph unicode="{" horiz-adv-x="438" d="M49 340l72 74l2 221q0 151 96 283l70 -64q-36 -50 -54 -104t-18 -115l-2 -248l-45 -47l47 -49v-246q0 -60 18.5 -115.5t57.5 -109.5l-65 -64q-104 134 -105 289l-2 221z" />
<glyph unicode="|" horiz-adv-x="676" d="M299 0v758h80v-758h-80z" />
<glyph unicode="}" horiz-adv-x="438" d="M150 -182q76 110 76 225v248l44 47l-44 47v248q0 58 -18 113t-54 106l69 66q24 -34 42.5 -68.5t30.5 -69.5t19 -71.5t7 -75.5l2 -223l69 -72l-69 -72l-2 -223q0 -39 -7 -76t-20 -72.5t-33 -71t-47 -71.5z" />
<glyph unicode="~" horiz-adv-x="610" d="M43 262q12 23 26.5 45.5t32.5 40t41 28.5t53 11q18 0 39 -5.5t41 -12.5t40 -16.5t39 -17t35 -12.5t28 -5q14 0 28 7.5t26 20t23.5 28.5t20.5 32l52 -58q-12 -23 -27 -44.5t-34 -38.5t-41 -27t-50 -10q-30 0 -57.5 10.5t-54 24t-52.5 23.5q-28 11 -56 11q-18 0 -32 -7.5 t-26 -20.5t-23 -30t-21 -36z" />
<glyph unicode="&#xa2;" horiz-adv-x="579" d="M45 377q0 48 17 89.5t46 73.5t67.5 53t82.5 27v86h80v-86q32 -6 61 -18.5t55 -33t47 -49.5t35 -65h-90q-20 32 -47 54q-27 20 -61 28v-319q32 8 58 27q26 18 50 51h90q-32 -73 -81 -113t-115 -49v-88h-80v88q-46 7 -85.5 28t-68 53t-45 73t-16.5 90zM127 379 q0 -30 10.5 -57t28.5 -48.5t41.5 -37t50.5 -21.5l2 321q-28 -6 -52.5 -20t-42 -34.5t-28 -46.5t-10.5 -56z" />
<glyph unicode="&#xa3;" horiz-adv-x="585" d="M47 0v86h137q-5 60 -12.5 104t-17.5 80h-86v84h53q-12 24 -23 45t-19.5 42t-13.5 44t-5 49q0 50 17 93.5t48 75.5t73 50.5t91 18.5q46 0 89.5 -17t77.5 -50.5t54 -82.5q20 -50 20 -114h-88q2 36 -8.5 68t-31 55t-48.5 37t-59 14q-28 0 -53.5 -10.5t-45.5 -29t-32 -44.5 t-12 -56q0 -26 7 -50.5t18 -48t22 -45.5t20 -44h181v-84h-152q10 -38 16 -83t10 -101h248v-86h-475z" />
<glyph unicode="&#xa5;" horiz-adv-x="645" d="M12 758h104l206 -406l206 406h103l-172 -336h169v-86h-216l-37 -70h253v-86h-258v-180h-94v180h-258v86h252l-38 70h-214v86h168z" />
<glyph unicode="&#xa9;" horiz-adv-x="850" d="M22 379q0 54 15 104t41 93.5t63 79.5t82 62t96.5 40t106.5 14t106.5 -14t96 -40t81 -62t62.5 -79.5t41 -93.5t15 -104q0 -55 -15 -105.5t-41 -94.5t-62.5 -80t-81 -61.5t-96 -39.5t-106.5 -14q-56 0 -107 14t-96 39.5t-82 61.5t-63 80t-41 94.5t-15 105.5zM106 379 q0 -43 12 -83t33 -74.5t50 -63t65 -48.5t76 -31t84 -11t85 11t76 31t64 48t50 62.5t33 73.5t12 81q0 44 -12 84t-33 75t-50 63.5t-65 49.5t-76 32t-84 11t-84 -11t-76 -31t-65 -49t-50 -63t-33 -74t-12 -83zM186 379q0 50 20 92.5t53.5 73.5t78 48t94.5 17q36 0 70.5 -10 t64 -29.5t53.5 -49t40 -69.5h-86q-25 39 -62.5 60.5t-79.5 21.5q-34 0 -64 -11t-52 -32t-35 -49t-13 -61t14 -63t36.5 -51.5t52.5 -34t63 -9.5q88 7 140 80h88q-76 -155 -228 -155q-52 0 -97 17t-78 48t-53 73.5t-20 92.5z" />
<glyph unicode="&#xab;" horiz-adv-x="428" d="M33 303l119 209l69 -37l-94 -172l94 -172l-69 -39zM207 303l119 209l72 -37l-97 -172l97 -172l-72 -39z" />
<glyph unicode="&#xad;" horiz-adv-x="502" d="M72 262v82h358v-82h-358z" />
<glyph unicode="&#xae;" horiz-adv-x="792" d="M4 387q0 54 14 103.5t39 93.5t61 79.5t80 61t94 39.5t106 14q54 0 104 -14t93.5 -39.5t79 -61t60.5 -79.5t39 -93.5t14 -103.5q0 -55 -14 -105t-39 -94t-60.5 -80t-79 -61t-93.5 -39t-104 -14q-55 0 -105.5 14t-94.5 39t-80 61t-61 80t-39 94t-14 105zM86 387 q0 -43 11 -83t32 -74t49 -63t63 -49t75 -31t82 -11t81.5 11t74 31t62.5 49t48 63t31 74t11 83q0 42 -11 81.5t-31 74t-48 63t-62.5 48.5t-74 31t-81.5 11t-82 -11t-75 -31t-63 -48.5t-49 -63t-32 -73.5t-11 -82zM242 178v430h190q36 0 64.5 -7.5t49 -22.5t31.5 -37.5 t11 -52.5q0 -28 -9 -50t-25 -37t-36.5 -24t-44.5 -13l123 -186h-96l-113 184h-65v-184h-80zM322 432h74q20 0 40 1t36 6t26 17t10 34q0 18 -7 28t-19 15.5t-28 7t-34 1.5h-98v-110z" />
<glyph unicode="&#xbb;" horiz-adv-x="428" d="M30 131l97 172l-97 172l72 37l119 -209l-119 -211zM205 131l96 172l-96 172l71 37l120 -209l-120 -211z" />
<glyph unicode="&#xbc;" horiz-adv-x="778" d="M30 694v76h156v-458h-82v382h-74zM82 0l500 770h102l-502 -770h-100zM420 78v62l219 319h82v-305h41v-76h-41v-78h-82v78h-219zM528 154h111v168z" />
<glyph unicode="&#xbd;" horiz-adv-x="778" d="M30 694v76h156v-458h-82v382h-74zM39 0l499 770h103l-501 -770h-101zM436 0v64l178 170q10 9 20 18.5t18 19.5t13 22t5 24q0 16 -6 29t-16 22t-24 13.5t-30 4.5q-18 0 -32 -7t-24 -20.5t-14 -32.5t-2 -43h-82q-2 40 9 74t32 57.5t51 36.5t66 13q32 0 59 -11t48 -30.5 t33 -45.5t12 -58q0 -25 -7.5 -47.5t-21.5 -42.5q-4 -6 -11.5 -14t-23.5 -24t-45 -43.5t-76 -72.5h183v-76h-312z" />
<glyph unicode="&#xbe;" horiz-adv-x="846" d="M14 490h80q-1 -21 4.5 -38.5t14.5 -30.5t22 -20.5t27 -7.5q16 0 29.5 5.5t23 15.5t15.5 23t6 28q0 23 -13 41t-37 26q-11 4 -24.5 4h-34.5v74h27q24 -2 39.5 10t15.5 36q0 40 -45 40q-41 0 -41 -68h-82q0 33 8.5 60.5t25.5 46.5t40 29t51 10q27 0 49.5 -10t39.5 -26 t27 -38q9 -22 9 -48q0 -20 -9 -39t-20 -33q56 -42 56 -113q0 -32 -12 -59.5t-32.5 -48t-48.5 -32t-61 -11.5t-61.5 13t-48.5 37t-31 56t-9 68zM150 0l499 770h103l-502 -770h-100zM488 78v62l218 319h82v-305h42v-76h-42v-78h-82v78h-218zM596 154h110v168z" />
<glyph unicode="&#xd7;" horiz-adv-x="631" d="M74 148l188 188l-188 188l51 52l189 -187l186 187l49 -50l-185 -188l187 -186l-53 -52l-186 186l-189 -188z" />
<glyph unicode="&#xf7;" horiz-adv-x="610" d="M45 258v90h520v-90h-520zM260 43v90h90v-90h-90zM260 473v90h90v-90h-90z" />
<glyph unicode="&#x2000;" horiz-adv-x="682" />
<glyph unicode="&#x2001;" horiz-adv-x="1365" />
<glyph unicode="&#x2002;" horiz-adv-x="682" />
<glyph unicode="&#x2003;" horiz-adv-x="1365" />
<glyph unicode="&#x2004;" horiz-adv-x="455" />
<glyph unicode="&#x2005;" horiz-adv-x="341" />
<glyph unicode="&#x2006;" horiz-adv-x="227" />
<glyph unicode="&#x2007;" horiz-adv-x="227" />
<glyph unicode="&#x2008;" horiz-adv-x="170" />
<glyph unicode="&#x2009;" horiz-adv-x="273" />
<glyph unicode="&#x200a;" horiz-adv-x="75" />
<glyph unicode="&#x2010;" horiz-adv-x="502" d="M72 262v82h358v-82h-358z" />
<glyph unicode="&#x2011;" horiz-adv-x="502" d="M72 262v82h358v-82h-358z" />
<glyph unicode="&#x2012;" horiz-adv-x="502" d="M72 262v82h358v-82h-358z" />
<glyph unicode="&#x2013;" horiz-adv-x="1024" d="M26 262v82h968v-82h-968z" />
<glyph unicode="&#x2014;" horiz-adv-x="2048" d="M26 262v82h1987v-82h-1987z" />
<glyph unicode="&#x2018;" horiz-adv-x="354" d="M88 752h90l94 -210h-88z" />
<glyph unicode="&#x2019;" horiz-adv-x="354" d="M82 542l94 210h90l-96 -210h-88z" />
<glyph unicode="&#x201c;" horiz-adv-x="506" d="M86 752h90l96 -210h-90zM236 752h88l96 -210h-90z" />
<glyph unicode="&#x201d;" horiz-adv-x="487" d="M78 542l90 210h90l-96 -210h-84zM221 542l97 210h90l-96 -210h-91z" />
<glyph unicode="&#x2022;" horiz-adv-x="610" d="M112 303q0 40 15 75.5t41.5 61.5t61.5 42t75 16t75.5 -16t61.5 -42t42 -61.5t16 -75.5t-16 -75t-42 -61.5t-61.5 -41.5t-75.5 -15t-75 15t-61.5 41.5t-41.5 61.5t-15 75z" />
<glyph unicode="&#x202f;" horiz-adv-x="273" />
<glyph unicode="&#x205f;" horiz-adv-x="341" />
<glyph unicode="&#x20ac;" horiz-adv-x="950" d="M33 260v86h121v35v35h-121v86h139q21 58 58 107t86.5 85t109.5 56t127 20q52 0 105 -13.5t101.5 -41t89.5 -69t69 -97.5h-103q-22 33 -51.5 57.5t-63.5 41t-71 24.5t-74 8q-46 0 -88.5 -13t-78.5 -37t-65 -56.5t-49 -71.5h369v-86h-393q-2 -10 -2 -17v-18v-17.5t2 -17.5 h393v-86h-371q19 -40 49 -74t67 -58.5t80.5 -38t90.5 -13.5q37 0 73 9.5t69 27.5t62.5 43.5t53.5 56.5h103q-28 -53 -67 -95t-86 -71.5t-100 -45t-108 -15.5q-68 0 -129.5 20t-112.5 56t-89 87t-56 111h-139z" />
<glyph unicode="&#x2122;" horiz-adv-x="891" d="M18 684v74h281v-74h-101v-372h-77v372h-103zM338 312v446h94l158 -330l158 330h94v-446h-78v304l-144 -304h-61l-145 304v-304h-76z" />
<glyph unicode="&#x25fc;" horiz-adv-x="560" d="M0 0v560h560v-560h-560z" />
</font>
</defs>
</svg>
